<mxfile host="65bd71144e">
    <diagram id="VX6zzPoldiH-JHPRvkUI" name="Heimversorgung">
        <mxGraphModel dx="1219" dy="928" grid="1" gridSize="10" guides="1" tooltips="1" connect="1" arrows="1" fold="1" page="1" pageScale="1" pageWidth="827" pageHeight="1169" math="0" shadow="0">
            <root>
                <mxCell id="0"/>
                <mxCell id="1" parent="0"/>
                <mxCell id="38" style="edgeStyle=none;html=1;entryX=0;entryY=0.5;entryDx=0;entryDy=0;exitX=0.993;exitY=0.191;exitDx=0;exitDy=0;exitPerimeter=0;" edge="1" parent="1" source="2" target="33">
                    <mxGeometry relative="1" as="geometry"/>
                </mxCell>
                <mxCell id="44" style="edgeStyle=none;html=1;entryX=0;entryY=0.5;entryDx=0;entryDy=0;" edge="1" parent="1" source="2" target="40">
                    <mxGeometry relative="1" as="geometry"/>
                </mxCell>
                <mxCell id="45" style="edgeStyle=none;html=1;entryX=0;entryY=0.5;entryDx=0;entryDy=0;exitX=1.002;exitY=0.859;exitDx=0;exitDy=0;exitPerimeter=0;" edge="1" parent="1" source="2" target="37">
                    <mxGeometry relative="1" as="geometry"/>
                </mxCell>
                <mxCell id="68" style="edgeStyle=none;html=1;entryX=1;entryY=0.5;entryDx=0;entryDy=0;exitX=-0.007;exitY=0.891;exitDx=0;exitDy=0;exitPerimeter=0;" edge="1" parent="1" source="2" target="67">
                    <mxGeometry relative="1" as="geometry"/>
                </mxCell>
                <mxCell id="2" value="Heim" style="shape=agent;offsetSize=8;strokeWidth=2;" vertex="1" parent="1">
                    <mxGeometry x="355" y="650" width="100" height="175" as="geometry"/>
                </mxCell>
                <mxCell id="16" style="edgeStyle=none;html=1;entryX=0;entryY=0.5;entryDx=0;entryDy=0;exitX=1.002;exitY=0.143;exitDx=0;exitDy=0;exitPerimeter=0;" edge="1" parent="1" source="3" target="10">
                    <mxGeometry relative="1" as="geometry"/>
                </mxCell>
                <mxCell id="17" style="edgeStyle=none;html=1;entryX=0;entryY=0.5;entryDx=0;entryDy=0;" edge="1" parent="1" source="3" target="11">
                    <mxGeometry relative="1" as="geometry"/>
                </mxCell>
                <mxCell id="18" style="edgeStyle=none;html=1;entryX=0;entryY=0.5;entryDx=0;entryDy=0;exitX=1.002;exitY=0.849;exitDx=0;exitDy=0;exitPerimeter=0;" edge="1" parent="1" source="3" target="12">
                    <mxGeometry relative="1" as="geometry"/>
                </mxCell>
                <mxCell id="3" value="Ambulante&#10;Pflegedienste" style="shape=agent;offsetSize=8;strokeWidth=2;" vertex="1" parent="1">
                    <mxGeometry x="350" y="210" width="100" height="170" as="geometry"/>
                </mxCell>
                <mxCell id="4" value="   Patient" style="shape=actor;horizontalLabelPosition=right;align=left;labelPosition=right;strokeWidth=2;" vertex="1" parent="1">
                    <mxGeometry x="654" y="210" width="25" height="50" as="geometry"/>
                </mxCell>
                <mxCell id="21" style="edgeStyle=none;html=1;entryX=-0.007;entryY=0.153;entryDx=0;entryDy=0;entryPerimeter=0;" edge="1" parent="1" source="5" target="3">
                    <mxGeometry relative="1" as="geometry"/>
                </mxCell>
                <mxCell id="5" value="   Arzt" style="shape=actor;horizontalLabelPosition=right;align=left;labelPosition=right;strokeWidth=2;" vertex="1" parent="1">
                    <mxGeometry x="194" y="210" width="25" height="50" as="geometry"/>
                </mxCell>
                <mxCell id="22" style="edgeStyle=none;html=1;entryX=0;entryY=0.5;entryDx=0;entryDy=0;" edge="1" parent="1" source="6" target="3">
                    <mxGeometry relative="1" as="geometry"/>
                </mxCell>
                <mxCell id="6" value="   Arzt" style="shape=actor;horizontalLabelPosition=right;align=left;labelPosition=right;strokeWidth=2;" vertex="1" parent="1">
                    <mxGeometry x="194" y="270" width="25" height="50" as="geometry"/>
                </mxCell>
                <mxCell id="23" style="edgeStyle=none;html=1;entryX=-0.04;entryY=0.859;entryDx=0;entryDy=0;entryPerimeter=0;" edge="1" parent="1" source="7" target="3">
                    <mxGeometry relative="1" as="geometry"/>
                </mxCell>
                <mxCell id="7" value="   Arzt" style="shape=actor;horizontalLabelPosition=right;align=left;labelPosition=right;strokeWidth=2;" vertex="1" parent="1">
                    <mxGeometry x="194" y="330" width="25" height="50" as="geometry"/>
                </mxCell>
                <mxCell id="8" value="   Patient" style="shape=actor;horizontalLabelPosition=right;align=left;labelPosition=right;strokeWidth=2;" vertex="1" parent="1">
                    <mxGeometry x="654" y="270" width="25" height="50" as="geometry"/>
                </mxCell>
                <mxCell id="9" value="   Patient" style="shape=actor;horizontalLabelPosition=right;align=left;labelPosition=right;strokeWidth=2;" vertex="1" parent="1">
                    <mxGeometry x="654" y="330" width="25" height="50" as="geometry"/>
                </mxCell>
                <mxCell id="15" style="edgeStyle=none;html=1;entryX=0;entryY=0.5;entryDx=0;entryDy=0;" edge="1" parent="1" source="10" target="4">
                    <mxGeometry relative="1" as="geometry"/>
                </mxCell>
                <mxCell id="10" value="Pflegevertrag" style="rounded=1;whiteSpace=wrap;html=1;arcSize=60;strokeWidth=2;" vertex="1" parent="1">
                    <mxGeometry x="504" y="215" width="90" height="40" as="geometry"/>
                </mxCell>
                <mxCell id="14" style="edgeStyle=none;html=1;entryX=0;entryY=0.5;entryDx=0;entryDy=0;" edge="1" parent="1" source="11" target="8">
                    <mxGeometry relative="1" as="geometry"/>
                </mxCell>
                <mxCell id="11" value="Pflegevertrag" style="rounded=1;whiteSpace=wrap;html=1;arcSize=60;strokeWidth=2;" vertex="1" parent="1">
                    <mxGeometry x="504" y="275" width="90" height="40" as="geometry"/>
                </mxCell>
                <mxCell id="13" style="edgeStyle=none;html=1;entryX=0;entryY=0.5;entryDx=0;entryDy=0;" edge="1" parent="1" source="12" target="9">
                    <mxGeometry relative="1" as="geometry"/>
                </mxCell>
                <mxCell id="12" value="Pflegevertrag" style="rounded=1;whiteSpace=wrap;html=1;arcSize=60;strokeWidth=2;" vertex="1" parent="1">
                    <mxGeometry x="504" y="335" width="90" height="40" as="geometry"/>
                </mxCell>
                <mxCell id="25" style="edgeStyle=none;html=1;entryX=0.5;entryY=0;entryDx=0;entryDy=0;exitX=0.417;exitY=1.003;exitDx=0;exitDy=0;exitPerimeter=0;" edge="1" parent="1" source="19" target="24">
                    <mxGeometry relative="1" as="geometry"/>
                </mxCell>
                <mxCell id="19" value="Pflegekasse" style="shape=agent;offsetSize=8;strokeWidth=2;" vertex="1" parent="1">
                    <mxGeometry x="190" y="60" width="500" height="60" as="geometry"/>
                </mxCell>
                <mxCell id="26" style="edgeStyle=none;html=1;entryX=0.5;entryY=0;entryDx=0;entryDy=0;" edge="1" parent="1" source="24" target="3">
                    <mxGeometry relative="1" as="geometry"/>
                </mxCell>
                <mxCell id="24" value="Geld" style="rounded=1;whiteSpace=wrap;html=1;arcSize=60;strokeWidth=2;" vertex="1" parent="1">
                    <mxGeometry x="355" y="140" width="90" height="40" as="geometry"/>
                </mxCell>
                <mxCell id="28" style="edgeStyle=none;html=1;entryX=0.5;entryY=1;entryDx=0;entryDy=0;" edge="1" parent="1" source="27" target="3">
                    <mxGeometry relative="1" as="geometry"/>
                </mxCell>
                <mxCell id="27" value="   Pfleger (0.3 - 5 Patienten)" style="shape=actor;horizontalLabelPosition=right;align=left;labelPosition=right;strokeWidth=2;" vertex="1" parent="1">
                    <mxGeometry x="387.5" y="410" width="25" height="50" as="geometry"/>
                </mxCell>
                <mxCell id="71" style="edgeStyle=none;html=1;entryX=0.5;entryY=1;entryDx=0;entryDy=0;" edge="1" parent="1" source="29" target="70">
                    <mxGeometry relative="1" as="geometry"/>
                </mxCell>
                <mxCell id="97" style="edgeStyle=none;html=1;entryX=0.25;entryY=1;entryDx=0;entryDy=0;exitX=1;exitY=0.75;exitDx=0;exitDy=0;" edge="1" parent="1" source="29" target="92">
                    <mxGeometry relative="1" as="geometry"/>
                </mxCell>
                <mxCell id="29" value="   Patient" style="shape=actor;horizontalLabelPosition=right;align=left;labelPosition=right;strokeWidth=2;" vertex="1" parent="1">
                    <mxGeometry x="740" y="655" width="25" height="50" as="geometry"/>
                </mxCell>
                <mxCell id="30" value="   Patient" style="shape=actor;horizontalLabelPosition=right;align=left;labelPosition=right;strokeWidth=2;" vertex="1" parent="1">
                    <mxGeometry x="740" y="715" width="25" height="50" as="geometry"/>
                </mxCell>
                <mxCell id="31" value="   Patient" style="shape=actor;horizontalLabelPosition=right;align=left;labelPosition=right;strokeWidth=2;" vertex="1" parent="1">
                    <mxGeometry x="740" y="775" width="25" height="50" as="geometry"/>
                </mxCell>
                <mxCell id="32" style="edgeStyle=none;html=1;entryX=0;entryY=0.5;entryDx=0;entryDy=0;" edge="1" parent="1" source="33" target="29">
                    <mxGeometry relative="1" as="geometry"/>
                </mxCell>
                <mxCell id="33" value="Pflegevertrag" style="rounded=1;whiteSpace=wrap;html=1;arcSize=60;strokeWidth=2;verticalAlign=top;" vertex="1" parent="1">
                    <mxGeometry x="475" y="660" width="250" height="45" as="geometry"/>
                </mxCell>
                <mxCell id="36" style="edgeStyle=none;html=1;entryX=0;entryY=0.5;entryDx=0;entryDy=0;" edge="1" parent="1" source="37" target="31">
                    <mxGeometry relative="1" as="geometry"/>
                </mxCell>
                <mxCell id="37" value="Pflegevertrag" style="rounded=1;whiteSpace=wrap;html=1;arcSize=60;strokeWidth=2;" vertex="1" parent="1">
                    <mxGeometry x="475" y="780" width="250" height="40" as="geometry"/>
                </mxCell>
                <mxCell id="39" value="Teilnahme an Medikamentenversorgung" style="rounded=1;whiteSpace=wrap;html=1;arcSize=60;strokeWidth=2;" vertex="1" parent="1">
                    <mxGeometry x="487.5" y="680" width="230" height="20" as="geometry"/>
                </mxCell>
                <mxCell id="43" style="edgeStyle=none;html=1;entryX=0;entryY=0.5;entryDx=0;entryDy=0;" edge="1" parent="1" source="40" target="30">
                    <mxGeometry relative="1" as="geometry"/>
                </mxCell>
                <mxCell id="40" value="Pflegevertrag" style="rounded=1;whiteSpace=wrap;html=1;arcSize=60;strokeWidth=2;verticalAlign=top;" vertex="1" parent="1">
                    <mxGeometry x="475" y="715" width="250" height="45" as="geometry"/>
                </mxCell>
                <mxCell id="41" value="Teilnahme an Medikamentenversorgung" style="rounded=1;whiteSpace=wrap;html=1;arcSize=60;strokeWidth=2;" vertex="1" parent="1">
                    <mxGeometry x="487.5" y="735" width="230" height="20" as="geometry"/>
                </mxCell>
                <mxCell id="50" style="edgeStyle=none;html=1;entryX=0.01;entryY=0.045;entryDx=0;entryDy=0;entryPerimeter=0;" edge="1" parent="1" source="47" target="2">
                    <mxGeometry relative="1" as="geometry"/>
                </mxCell>
                <mxCell id="47" value="Apo §12a&lt;br&gt;Heimversorgungsvertrag" style="rounded=1;whiteSpace=wrap;html=1;arcSize=60;strokeWidth=2;verticalAlign=top;" vertex="1" parent="1">
                    <mxGeometry x="150" y="610" width="190" height="90" as="geometry"/>
                </mxCell>
                <mxCell id="49" style="edgeStyle=none;html=1;entryX=0;entryY=0.5;entryDx=0;entryDy=0;" edge="1" parent="1" source="48" target="47">
                    <mxGeometry relative="1" as="geometry"/>
                </mxCell>
                <mxCell id="83" style="edgeStyle=none;html=1;entryX=0.5;entryY=1;entryDx=0;entryDy=0;" edge="1" parent="1" source="48" target="82">
                    <mxGeometry relative="1" as="geometry"/>
                </mxCell>
                <mxCell id="48" value="Apotheke" style="shape=agent;offsetSize=8;strokeWidth=2;" vertex="1" parent="1">
                    <mxGeometry x="35" y="590" width="100" height="120" as="geometry"/>
                </mxCell>
                <mxCell id="54" style="edgeStyle=none;html=1;entryX=0.002;entryY=0.568;entryDx=0;entryDy=0;entryPerimeter=0;" edge="1" parent="1" source="51" target="2">
                    <mxGeometry relative="1" as="geometry"/>
                </mxCell>
                <mxCell id="51" value="Apo §12a&lt;br&gt;Heimversorgungsvertrag" style="rounded=1;whiteSpace=wrap;html=1;arcSize=60;strokeWidth=2;" vertex="1" parent="1">
                    <mxGeometry x="165" y="730" width="160" height="40" as="geometry"/>
                </mxCell>
                <mxCell id="52" style="edgeStyle=none;html=1;entryX=0;entryY=0.5;entryDx=0;entryDy=0;" edge="1" parent="1" source="53" target="51">
                    <mxGeometry relative="1" as="geometry"/>
                </mxCell>
                <mxCell id="60" style="edgeStyle=none;html=1;entryX=0;entryY=0.5;entryDx=0;entryDy=0;" edge="1" parent="1" source="53" target="59">
                    <mxGeometry relative="1" as="geometry">
                        <Array as="points">
                            <mxPoint x="85" y="980"/>
                        </Array>
                    </mxGeometry>
                </mxCell>
                <mxCell id="53" value="Apotheke" style="shape=agent;offsetSize=8;strokeWidth=2;" vertex="1" parent="1">
                    <mxGeometry x="35" y="720" width="100" height="60" as="geometry"/>
                </mxCell>
                <mxCell id="102" style="edgeStyle=none;html=1;entryX=1;entryY=0.5;entryDx=0;entryDy=0;" edge="1" parent="1" source="56" target="101">
                    <mxGeometry relative="1" as="geometry">
                        <Array as="points">
                            <mxPoint x="320" y="555"/>
                        </Array>
                    </mxGeometry>
                </mxCell>
                <mxCell id="56" value="   Arzt" style="shape=actor;horizontalLabelPosition=right;align=left;labelPosition=right;strokeWidth=2;" vertex="1" parent="1">
                    <mxGeometry x="314" y="490" width="25" height="50" as="geometry"/>
                </mxCell>
                <mxCell id="57" value="Weitere Lieferanten" style="shape=agent;offsetSize=8;strokeWidth=2;" vertex="1" parent="1">
                    <mxGeometry x="336.5" y="870" width="137" height="30" as="geometry"/>
                </mxCell>
                <mxCell id="58" value="" style="shape=useedge;vertical=true;endArrow=none;useSignPosition=left;useSignDirection=none;entryX=0.5;entryY=1;entryDx=0;entryDy=0;exitX=0.5;exitY=0;exitDx=0;exitDy=0;" edge="1" parent="1" source="57" target="2">
                    <mxGeometry height="160" relative="1" as="geometry">
                        <mxPoint x="360" y="990" as="sourcePoint"/>
                        <mxPoint x="360" y="830" as="targetPoint"/>
                    </mxGeometry>
                </mxCell>
                <mxCell id="61" style="edgeStyle=none;html=1;entryX=0.75;entryY=1;entryDx=0;entryDy=0;" edge="1" parent="1" source="59" target="31">
                    <mxGeometry relative="1" as="geometry">
                        <Array as="points">
                            <mxPoint x="759" y="980"/>
                        </Array>
                    </mxGeometry>
                </mxCell>
                <mxCell id="59" value="Versorgungsvertrag" style="rounded=1;whiteSpace=wrap;html=1;arcSize=60;strokeWidth=2;verticalAlign=top;" vertex="1" parent="1">
                    <mxGeometry x="322.5" y="940" width="174.5" height="80" as="geometry"/>
                </mxCell>
                <mxCell id="62" value="Wird häufig als Teil des Pflegevertrages vorgelegt z.B. als Kopiervorlage" style="text;html=1;strokeColor=none;fillColor=none;align=center;verticalAlign=middle;whiteSpace=wrap;rounded=0;" vertex="1" parent="1">
                    <mxGeometry x="318.25" y="1020" width="183" height="50" as="geometry"/>
                </mxCell>
                <mxCell id="63" value="   Arzt" style="shape=actor;horizontalLabelPosition=right;align=left;labelPosition=right;strokeWidth=2;" vertex="1" parent="1">
                    <mxGeometry x="387.5" y="490" width="25" height="50" as="geometry"/>
                </mxCell>
                <mxCell id="77" style="edgeStyle=none;html=1;entryX=0.5;entryY=0;entryDx=0;entryDy=0;" edge="1" parent="1" source="64" target="73">
                    <mxGeometry relative="1" as="geometry"/>
                </mxCell>
                <mxCell id="94" style="edgeStyle=none;html=1;entryX=0;entryY=0.5;entryDx=0;entryDy=0;exitX=1;exitY=1;exitDx=0;exitDy=0;" edge="1" parent="1" source="64" target="93">
                    <mxGeometry relative="1" as="geometry">
                        <Array as="points">
                            <mxPoint x="540" y="540"/>
                            <mxPoint x="540" y="600"/>
                        </Array>
                    </mxGeometry>
                </mxCell>
                <mxCell id="64" value="   Arzt" style="shape=actor;horizontalLabelPosition=right;align=left;labelPosition=right;strokeWidth=2;" vertex="1" parent="1">
                    <mxGeometry x="462.5" y="490" width="25" height="50" as="geometry"/>
                </mxCell>
                <mxCell id="65" value="Einwilligung Kontaktaufnahme Arzt" style="rounded=1;whiteSpace=wrap;html=1;arcSize=60;strokeWidth=2;" vertex="1" parent="1">
                    <mxGeometry x="334.25" y="970" width="151" height="40" as="geometry"/>
                </mxCell>
                <mxCell id="66" value="Verträge müssen von Heimen offen gelegt werden" style="text;html=1;strokeColor=none;fillColor=none;align=center;verticalAlign=middle;whiteSpace=wrap;rounded=0;" vertex="1" parent="1">
                    <mxGeometry x="460" y="820" width="280" height="35" as="geometry"/>
                </mxCell>
                <mxCell id="69" style="edgeStyle=none;html=1;entryX=0.877;entryY=1.017;entryDx=0;entryDy=0;entryPerimeter=0;" edge="1" parent="1" source="67" target="53">
                    <mxGeometry relative="1" as="geometry">
                        <Array as="points">
                            <mxPoint x="123" y="805"/>
                        </Array>
                    </mxGeometry>
                </mxCell>
                <mxCell id="67" value="Medikationsplan" style="rounded=1;whiteSpace=wrap;html=1;arcSize=60;strokeWidth=2;" vertex="1" parent="1">
                    <mxGeometry x="200" y="785" width="90" height="40" as="geometry"/>
                </mxCell>
                <mxCell id="72" style="edgeStyle=none;html=1;entryX=1;entryY=0.75;entryDx=0;entryDy=0;" edge="1" parent="1" source="70" target="64">
                    <mxGeometry relative="1" as="geometry">
                        <Array as="points">
                            <mxPoint x="753" y="528"/>
                        </Array>
                    </mxGeometry>
                </mxCell>
                <mxCell id="70" value="Medikationsplan" style="rounded=1;whiteSpace=wrap;html=1;arcSize=60;strokeWidth=2;" vertex="1" parent="1">
                    <mxGeometry x="707.5" y="585" width="90" height="40" as="geometry"/>
                </mxCell>
                <mxCell id="78" style="edgeStyle=none;html=1;entryX=0.75;entryY=0;entryDx=0;entryDy=0;" edge="1" parent="1" source="73" target="2">
                    <mxGeometry relative="1" as="geometry">
                        <Array as="points">
                            <mxPoint x="475" y="640"/>
                            <mxPoint x="430" y="640"/>
                        </Array>
                    </mxGeometry>
                </mxCell>
                <mxCell id="73" value="Medikationsplan" style="rounded=1;whiteSpace=wrap;html=1;arcSize=60;strokeWidth=2;" vertex="1" parent="1">
                    <mxGeometry x="430" y="580" width="90" height="40" as="geometry"/>
                </mxCell>
                <mxCell id="75" value="" style="shape=useedge;vertical=true;edgeStyle=elbowEdgeStyle;elbow=vertical;endArrow=none;useSignPosition=up;useSignDirection=none;entryX=0.5;entryY=1;entryDx=0;entryDy=0;exitX=0.25;exitY=0;exitDx=0;exitDy=0;" edge="1" parent="1" source="2" target="56">
                    <mxGeometry width="70" height="160" relative="1" as="geometry">
                        <mxPoint x="380" y="740" as="sourcePoint"/>
                        <mxPoint x="450" y="580" as="targetPoint"/>
                    </mxGeometry>
                </mxCell>
                <mxCell id="76" value="" style="shape=useedge;vertical=true;endArrow=none;useSignPosition=left;useSignDirection=none;entryX=0.75;entryY=1;entryDx=0;entryDy=0;exitX=0.5;exitY=0;exitDx=0;exitDy=0;" edge="1" parent="1" source="2" target="63">
                    <mxGeometry height="160" relative="1" as="geometry">
                        <mxPoint x="400" y="740" as="sourcePoint"/>
                        <mxPoint x="400" y="580" as="targetPoint"/>
                    </mxGeometry>
                </mxCell>
                <mxCell id="79" value="Medikamentenmanagement&#10;kann in Apotheke sein oder Heim&#10;Fordert Medikamente an" style="shape=agent;offsetSize=8;strokeWidth=2;" vertex="1" parent="1">
                    <mxGeometry x="35" y="1080" width="205" height="70" as="geometry"/>
                </mxCell>
                <mxCell id="80" value="Anlage Medikamentenmanagement" style="rounded=1;whiteSpace=wrap;html=1;arcSize=60;strokeWidth=2;" vertex="1" parent="1">
                    <mxGeometry x="160" y="650" width="170" height="40" as="geometry"/>
                </mxCell>
                <mxCell id="84" style="edgeStyle=none;html=1;entryX=0;entryY=0.5;entryDx=0;entryDy=0;" edge="1" parent="1" source="82" target="56">
                    <mxGeometry relative="1" as="geometry"/>
                </mxCell>
                <mxCell id="82" value="Rezept&lt;br&gt;anforderung" style="rounded=1;whiteSpace=wrap;html=1;arcSize=60;strokeWidth=2;fillColor=#fff2cc;strokeColor=#d6b656;" vertex="1" parent="1">
                    <mxGeometry x="40" y="495" width="90" height="40" as="geometry"/>
                </mxCell>
                <mxCell id="89" style="edgeStyle=none;html=1;entryX=1;entryY=0.5;entryDx=0;entryDy=0;" edge="1" parent="1" source="87" target="88">
                    <mxGeometry relative="1" as="geometry"/>
                </mxCell>
                <mxCell id="87" value="   Pfleger" style="shape=actor;horizontalLabelPosition=right;align=left;labelPosition=right;strokeWidth=2;" vertex="1" parent="1">
                    <mxGeometry x="725" y="450" width="25" height="50" as="geometry"/>
                </mxCell>
                <mxCell id="90" style="edgeStyle=none;html=1;" edge="1" parent="1" source="88">
                    <mxGeometry relative="1" as="geometry">
                        <mxPoint x="130" y="600" as="targetPoint"/>
                        <Array as="points">
                            <mxPoint x="180" y="600"/>
                        </Array>
                    </mxGeometry>
                </mxCell>
                <mxCell id="88" value="Kommunikation" style="rounded=1;whiteSpace=wrap;html=1;arcSize=60;strokeWidth=2;" vertex="1" parent="1">
                    <mxGeometry x="135" y="450" width="90" height="40" as="geometry"/>
                </mxCell>
                <mxCell id="96" style="edgeStyle=none;html=1;entryX=1;entryY=0.75;entryDx=0;entryDy=0;" edge="1" parent="1" source="92" target="87">
                    <mxGeometry relative="1" as="geometry">
                        <Array as="points">
                            <mxPoint x="869" y="488"/>
                        </Array>
                    </mxGeometry>
                </mxCell>
                <mxCell id="92" value="Beobachtung&lt;br&gt;oder&lt;br&gt;Änderung" style="rounded=1;whiteSpace=wrap;html=1;arcSize=60;strokeWidth=2;" vertex="1" parent="1">
                    <mxGeometry x="827" y="640" width="83" height="55" as="geometry"/>
                </mxCell>
                <mxCell id="95" style="edgeStyle=none;html=1;entryX=0;entryY=0.25;entryDx=0;entryDy=0;" edge="1" parent="1" source="93" target="29">
                    <mxGeometry relative="1" as="geometry">
                        <Array as="points">
                            <mxPoint x="690" y="600"/>
                        </Array>
                    </mxGeometry>
                </mxCell>
                <mxCell id="93" value="Visite" style="rounded=1;whiteSpace=wrap;html=1;arcSize=60;strokeWidth=2;" vertex="1" parent="1">
                    <mxGeometry x="571" y="585" width="83" height="30" as="geometry"/>
                </mxCell>
                <mxCell id="98" value="Fallkonferenz" style="rounded=1;whiteSpace=wrap;html=1;arcSize=60;strokeWidth=2;" vertex="1" parent="1">
                    <mxGeometry x="567.5" y="535" width="90" height="40" as="geometry"/>
                </mxCell>
                <mxCell id="99" value="Fallkonferenz&#10;mit Apotheker" style="shape=agent;offsetSize=8;strokeWidth=2;" vertex="1" parent="1">
                    <mxGeometry x="250" y="1080" width="100" height="70" as="geometry"/>
                </mxCell>
                <mxCell id="100" value="Anspruch des&#10;Patienten auf&#10;Versorgungsmanagement&#10;§11.4 SGB V" style="shape=agent;offsetSize=8;strokeWidth=2;" vertex="1" parent="1">
                    <mxGeometry x="364" y="1080" width="156" height="70" as="geometry"/>
                </mxCell>
                <mxCell id="103" style="edgeStyle=none;html=1;entryX=0.75;entryY=0;entryDx=0;entryDy=0;" edge="1" parent="1" source="101" target="48">
                    <mxGeometry relative="1" as="geometry">
                        <Array as="points">
                            <mxPoint x="110" y="555"/>
                        </Array>
                    </mxGeometry>
                </mxCell>
                <mxCell id="101" value="Direktzuweisung" style="rounded=1;whiteSpace=wrap;html=1;arcSize=60;strokeWidth=2;fillColor=#fff2cc;strokeColor=#d6b656;" vertex="1" parent="1">
                    <mxGeometry x="194" y="540" width="90" height="30" as="geometry"/>
                </mxCell>
            </root>
        </mxGraphModel>
    </diagram>
</mxfile>